# xmcd CD database file
#
# Track frame offsets:
#	150
#	21450
#	45742
#	75357
#	95677
#	120010
#	144637
#	167260
#	191092
#	221107
#	235525
#	260977
#
# Disc length: 3751 seconds
#
# Revision: 0
# Processed by: cddbd v1.4PL0 Copyright (c) Steve Scherf et al.
# Submitted via: CDex 1.50
#
DISCID=9f0ea50c
DTITLE=Joe Henderson - Double Rainbow
DYEAR=1994
DGENRE=Jazz
TTITLE0=Felicidade
TTITLE1=Dreamer
TTITLE2=Boto
TTITLE3=Ligia
TTITLE4=Once I Loved
TTITLE5=Triste
TTITLE6=Photograph
TTITLE7=Portrait in Black and White
TTITLE8=No More Blues
TTITLE9=Happy Madness
TTITLE10=Passarim
TTITLE11=Modinha
EXTD=YEAR: 1994
EXTT0=
EXTT1=
EXTT2=
EXTT3=
EXTT4=
EXTT5=
EXTT6=
EXTT7=
EXTT8=
EXTT9=
EXTT10=
EXTT11=
PLAYORDER=
